<svg xmlns="http://www.w3.org/2000/svg" xmlns:xlink="http://www.w3.org/1999/xlink" version="1.1" x="0px" y="0px" viewBox="0 0 1000 1250" enable-background="new 0 0 1000 1000" xml:space="preserve"><g><rect x="203.6" y="226.4" fill-rule="evenodd" clip-rule="evenodd" width="45.6" height="45.6"/><rect x="249.2" y="272" fill-rule="evenodd" clip-rule="evenodd" width="45.6" height="45.6"/><rect x="249.2" y="500" fill-rule="evenodd" clip-rule="evenodd" width="45.6" height="45.6"/><rect x="294.8" y="317.6" fill-rule="evenodd" clip-rule="evenodd" width="45.6" height="182.4"/><path fill-rule="evenodd" clip-rule="evenodd" d="M796.4,272v-45.6h-45.6v-91.2h-45.6v45.6h-45.6v45.6H522.8v-45.6h-45.6v-45.6   h-45.6v91.2H386V272h45.6v45.6H386v45.6h45.6v45.6h45.6v45.6h45.6V500h-45.6v45.6H340.4v45.6h-45.6v91.2h-45.6V545.6h-45.6V728   h45.6v45.6h45.6v45.6v45.6h273.6v-45.6h-45.6v-45.6H614v45.6v45.6h136.8v-45.6h-45.6v-45.6h-45.6V454.4h45.6v-45.6h45.6v-45.6h45.6   v-45.6h-45.6V272H796.4z M568.4,317.6h-45.6V272h45.6V317.6z M659.6,317.6H614V272h45.6V317.6z"/></g><text x="0" y="1015" fill="#000000" font-size="5px" font-weight="bold" font-family="'Helvetica Neue', Helvetica, Arial-Unicode, Arial, Sans-serif">Created by Alvaro Cabrera</text><text x="0" y="1020" fill="#000000" font-size="5px" font-weight="bold" font-family="'Helvetica Neue', Helvetica, Arial-Unicode, Arial, Sans-serif">from the Noun Project</text></svg>